# xmcd
#
# Track frame offsets:
#	150
#	18316
#	40026
#	57706
#	74226
#	89911
#	107704
#	120809
#	137256
#	153382
#	169933
#	185653
#	201988
#
# Disc length: 2895 seconds
#
# Revision: 0
# Processed by: cddbd v1.5.2PL0 Copyright (c) Steve Scherf et al.
# Submitted via: audiograbber 1.83.01
#
DISCID=bc0b4d0d
DTITLE=Rockie Lynne - Lipstick
DYEAR=2006
DGENRE=Country
TTITLE0=Rockie Lynne - Lipstick
TTITLE1=Rockie Lynne - The Only Reason
TTITLE2=Rockie Lynne - More
TTITLE3=Rockie Lynne - Super Country Cowboy
TTITLE4=Rockie Lynne - That's Where Songs Come From
TTITLE5=Rockie Lynne - Do We Still
TTITLE6=Rockie Lynne - Big Time In A Small Town
TTITLE7=Rockie Lynne - Don't Make This Easy On Me
TTITLE8=Rockie Lynne - Love Me Like You're Gonna Lose Me
TTITLE9=Rockie Lynne - Every Man's Got A Mountain
TTITLE10=Rockie Lynne - Holding Back The Ocean
TTITLE11=Rockie Lynne - Red, White And Blue
TTITLE12=Rockie Lynne - Down On Mexico
EXTD=
EXTT0=
EXTT1=
EXTT2=
EXTT3=
EXTT4=
EXTT5=
EXTT6=
EXTT7=
EXTT8=
EXTT9=
EXTT10=
EXTT11=
EXTT12=
PLAYORDER=
